kj<?xml version="1.0" standalone="no"?>
<!DOCTYPE svg PUBLIC "-//W3C//DTD SVG 20010904//EN"
 "http://www.w3.org/TR/2001/REC-SVG-20010904/DTD/svg10.dtd">
<svg version="1.0" xmlns="http://www.w3.org/2000/svg"
 width="324.000000pt" height="100.000000pt" viewBox="0 0 324.000000 100.000000"
 preserveAspectRatio="xMidYMid meet">

<g transform="translate(0.000000,100.000000) scale(0.100000,-0.100000)"
fill="#FFFFFF" stroke="none">
<path d="M350 975 c0 -8 5 -15 10 -15 6 0 10 7 10 15 0 8 -4 15 -10 15 -5 0
-10 -7 -10 -15z"/>
<path d="M350 920 c0 -5 5 -10 10 -10 6 0 10 5 10 10 0 6 -4 10 -10 10 -5 0
-10 -4 -10 -10z"/>
<path d="M401 659 c1 -260 4 -279 24 -184 3 11 11 44 20 74 8 29 12 57 10 62
-3 4 -1 10 4 13 7 5 6 64 -2 174 -1 12 -5 22 -8 22 -4 0 -10 20 -13 44 -4 24
-14 50 -21 56 -13 11 -15 -23 -14 -261z"/>
<path d="M290 865 c0 -8 7 -15 15 -15 8 0 15 7 15 15 0 8 -7 15 -15 15 -8 0
-15 -7 -15 -15z"/>
<path d="M340 860 c0 -13 7 -20 20 -20 13 0 20 7 20 20 0 13 -7 20 -20 20 -13
0 -20 -7 -20 -20z"/>
<path d="M287 823 c-14 -13 -6 -33 13 -33 13 0 20 7 20 20 0 19 -20 27 -33 13z"/>
<path d="M340 810 c0 -13 7 -20 20 -20 13 0 20 7 20 20 0 13 -7 20 -20 20 -13
0 -20 -7 -20 -20z"/>
<path d="M340 750 c0 -13 7 -20 20 -20 13 0 20 7 20 20 0 13 -7 20 -20 20 -13
0 -20 -7 -20 -20z"/>
<path d="M290 750 c0 -5 7 -10 15 -10 8 0 15 5 15 10 0 6 -7 10 -15 10 -8 0
-15 -4 -15 -10z"/>
<path d="M251 694 c0 -11 3 -14 6 -6 3 7 2 16 -1 19 -3 4 -6 -2 -5 -13z"/>
<path d="M280 690 c0 -13 7 -20 20 -20 13 0 20 7 20 20 0 13 -7 20 -20 20 -13
0 -20 -7 -20 -20z"/>
<path d="M340 690 c0 -13 7 -20 20 -20 13 0 20 7 20 20 0 13 -7 20 -20 20 -13
0 -20 -7 -20 -20z"/>
<path d="M777 679 c-11 -6 -24 -12 -30 -13 -7 -2 -25 -9 -42 -16 -16 -7 -32
-14 -35 -16 -3 -1 -15 -5 -27 -9 -13 -4 -23 -11 -23 -16 0 -5 -7 -9 -15 -9 -8
0 -15 -7 -15 -16 0 -8 -4 -12 -10 -9 -5 3 -10 -1 -10 -9 0 -9 -5 -16 -11 -16
-14 0 -39 -25 -39 -39 0 -6 -4 -11 -10 -11 -5 0 -10 -7 -10 -15 0 -8 -4 -15
-10 -15 -5 0 -10 -7 -10 -15 0 -8 -3 -15 -7 -15 -5 0 -19 -18 -33 -40 -13 -22
-28 -40 -32 -40 -20 0 -4 -51 28 -88 33 -40 90 -79 100 -69 10 10 -45 74 -81
94 -44 25 -39 29 15 13 104 -30 171 -32 250 -5 l65 22 -60 22 c-59 22 -136 30
-185 19 -14 -3 -45 -11 -69 -18 -56 -15 -64 -6 -15 17 22 10 41 21 42 26 2 4
10 7 17 7 16 0 79 32 83 43 2 4 8 7 13 7 6 0 35 25 64 55 30 30 52 55 49 55
-4 0 5 15 20 34 14 19 26 40 26 47 0 7 7 21 17 31 18 20 16 22 -10 7z"/>
<path d="M850 645 l0 -45 55 0 55 0 0 -300 0 -300 55 0 55 0 0 300 0 300 55 0
55 0 0 45 0 45 -165 0 -165 0 0 -45z"/>
<path d="M1320 345 l0 -345 50 0 50 0 0 150 0 150 60 0 60 0 0 -150 0 -150 55
0 55 0 0 345 0 345 -55 0 -55 0 0 -150 0 -150 -60 0 -60 0 0 150 0 150 -50 0
-50 0 0 -345z"/>
<path d="M1873 670 c-66 -40 -68 -49 -71 -310 -3 -228 -2 -236 20 -280 27 -54
73 -80 138 -80 102 0 151 56 158 181 l5 79 -52 0 -51 0 0 -61 c0 -78 -11 -99
-54 -99 -19 0 -38 6 -43 13 -16 19 -27 406 -13 442 31 82 110 49 110 -45 l0
-50 51 0 52 0 -6 65 c-7 78 -27 119 -70 145 -43 27 -131 27 -174 0z"/>
<path d="M2293 523 c4 -91 7 -246 7 -345 l0 -178 25 0 c22 0 25 4 25 37 l0 36
23 -20 c79 -73 213 -69 284 8 87 95 62 273 -46 328 -82 42 -163 35 -226 -20
l-35 -31 0 176 0 176 -32 0 -31 0 6 -167z m271 -167 c48 -20 79 -69 84 -133 5
-65 -9 -103 -55 -143 -29 -26 -41 -30 -93 -30 -54 0 -64 3 -99 35 -136 123 -6
341 163 271z"/>
<path d="M283 645 c-6 -18 1 -28 22 -31 10 -1 15 6 15 22 0 27 -27 34 -37 9z"/>
<path d="M340 640 c0 -13 7 -20 20 -20 13 0 20 7 20 20 0 13 -7 20 -20 20 -13
0 -20 -7 -20 -20z"/>
<path d="M170 581 c0 -15 6 -21 21 -21 14 0 19 5 17 17 -5 26 -38 29 -38 4z
m30 -1 c0 -5 -4 -10 -10 -10 -5 0 -10 5 -10 10 0 6 5 10 10 10 6 0 10 -4 10
-10z"/>
<path d="M340 580 c0 -13 7 -20 20 -20 13 0 20 7 20 20 0 13 -7 20 -20 20 -13
0 -20 -7 -20 -20z"/>
<path d="M290 580 c0 -5 5 -10 10 -10 6 0 10 5 10 10 0 6 -4 10 -10 10 -5 0
-10 -4 -10 -10z"/>
<path d="M2811 576 c-16 -19 -6 -52 19 -59 28 -7 53 15 48 44 -4 29 -47 39
-67 15z"/>
<path d="M171 518 c1 -17 2 -19 6 -5 2 9 8 17 13 17 5 0 11 -8 13 -17 4 -14 5
-12 6 5 1 16 -5 22 -19 22 -14 0 -20 -6 -19 -22z"/>
<path d="M340 520 c0 -13 7 -20 20 -20 13 0 20 7 20 20 0 13 -7 20 -20 20 -13
0 -20 -7 -20 -20z"/>
<path d="M231 518 c-1 -10 6 -18 14 -18 8 0 15 8 15 18 0 13 -2 14 -9 3 -7
-11 -9 -11 -14 0 -4 10 -6 9 -6 -3z"/>
<path d="M3070 475 l0 -55 -40 0 c-36 0 -40 -2 -40 -25 0 -22 4 -25 40 -25
l40 0 0 -154 c0 -152 0 -155 26 -186 25 -29 30 -31 83 -28 50 3 56 5 59 27 4
22 1 23 -29 17 -22 -4 -40 -1 -56 9 -22 15 -23 19 -23 165 l0 150 55 0 c52 0
55 1 55 25 0 24 -3 25 -54 25 l-53 0 -7 46 c-3 25 -3 50 0 55 3 5 -9 9 -25 9
-31 0 -31 0 -31 -55z"/>
<path d="M170 465 c0 -8 9 -15 20 -15 11 0 20 7 20 15 0 8 -9 15 -20 15 -11 0
-20 -7 -20 -15z"/>
<path d="M230 468 c0 -22 13 -23 30 -3 9 10 9 15 1 15 -6 0 -11 -6 -11 -12 0
-9 -4 -8 -10 2 -8 13 -10 12 -10 -2z"/>
<path d="M290 465 c0 -8 7 -15 15 -15 8 0 15 7 15 15 0 8 -7 15 -15 15 -8 0
-15 -7 -15 -15z"/>
<path d="M355 460 c3 -5 8 -10 11 -10 2 0 4 5 4 10 0 6 -5 10 -11 10 -5 0 -7
-4 -4 -10z"/>
<path d="M280 410 c0 -13 7 -20 20 -20 13 0 20 7 20 20 0 13 -7 20 -20 20 -13
0 -20 -7 -20 -20z"/>
<path d="M340 410 c0 -13 7 -20 20 -20 13 0 20 7 20 20 0 13 -7 20 -20 20 -13
0 -20 -7 -20 -20z"/>
<path d="M2817 413 c-4 -3 -7 -98 -7 -210 l0 -203 30 0 30 0 0 210 0 210 -23
0 c-13 0 -27 -3 -30 -7z"/>
<path d="M280 350 c0 -13 7 -20 20 -20 13 0 20 7 20 20 0 13 -7 20 -20 20 -13
0 -20 -7 -20 -20z"/>
<path d="M340 350 c0 -13 7 -20 20 -20 13 0 20 7 20 20 0 13 -7 20 -20 20 -13
0 -20 -7 -20 -20z"/>
<path d="M340 290 c0 -13 7 -20 20 -20 13 0 20 7 20 20 0 13 -7 20 -20 20 -13
0 -20 -7 -20 -20z"/>
<path d="M290 240 c0 -5 5 -10 10 -10 6 0 10 5 10 10 0 6 -4 10 -10 10 -5 0
-10 -4 -10 -10z"/>
<path d="M350 235 c0 -8 7 -15 15 -15 8 0 15 7 15 15 0 8 -7 15 -15 15 -8 0
-15 -7 -15 -15z"/>
<path d="M340 180 c0 -13 7 -20 20 -20 13 0 20 7 20 20 0 13 -7 20 -20 20 -13
0 -20 -7 -20 -20z"/>
<path d="M391 134 c0 -11 3 -14 6 -6 3 7 2 16 -1 19 -3 4 -6 -2 -5 -13z"/>
<path d="M350 120 c0 -5 5 -10 10 -10 6 0 10 5 10 10 0 6 -4 10 -10 10 -5 0
-10 -4 -10 -10z"/>
<path d="M403 45 c0 -27 2 -38 4 -22 2 15 2 37 0 50 -2 12 -4 0 -4 -28z"/>
<path d="M350 10 c0 -5 5 -10 10 -10 6 0 10 5 10 10 0 6 -4 10 -10 10 -5 0
-10 -4 -10 -10z"/>
</g>
</svg>
